<svg width="64" height="64" viewBox="920 370 2620 2980" xmlns="http://www.w3.org/2000/svg">
<rect x="920" y="370" width="2620" height="2980" rx="380" fill="#0a0512"/>
<path fill-rule="evenodd" clip-rule="evenodd" d="M1017.19 1866.26L1669.74 1142.33C1669.74 1142.33 1311.56 1902.22 1017.19 1866.26Z" fill="#562197"/>
<path fill-rule="evenodd" clip-rule="evenodd" d="M1017.38 1866.08L1521.42 1306.91C1256.04 1760.84 1031.7 1862.65 1022.21 1866.81C1021.47 1866.72 1020.72 1866.69 1020.04 1866.6L1017.38 1866.08Z" fill="#8437D9"/>
<path fill-rule="evenodd" clip-rule="evenodd" d="M2648.59 2117.63C2648.59 2117.63 2485.77 2468.66 2866.86 2887.72C2866.86 2887.72 2414.57 2690.05 2436.73 2364.35C2436.73 2364.35 2511.04 2536.69 2597.99 2571.48C2597.99 2571.48 2458.88 2312.13 2648.59 2117.63Z" fill="#46EF0F"/>
<path fill-rule="evenodd" clip-rule="evenodd" d="M2307.02 2675.86C2307.02 2675.86 1642.92 2228.35 2330.79 1956.37C2330.79 1956.37 1846.88 2182.48 2307.02 2675.86Z" fill="#562197"/>
<path fill-rule="evenodd" clip-rule="evenodd" d="M2513.84 1444.38C2513.84 1444.38 2603.34 1443.57 2654.56 1473.7C2654.56 1473.7 2704.23 1498.09 2712.32 1562.32C2712.32 1562.32 2582.99 1595.69 2513.84 1444.38Z" fill="#46EF0F"/>
<path d="M2513.84 1444.38C2527.87 1475.08 2544.39 1498.18 2561.79 1515.5C2557.52 1493.76 2561.35 1469.25 2589.02 1451.46C2549.7 1444.06 2513.84 1444.38 2513.84 1444.38Z" fill="#217721"/>
<path d="M2654.56 1520.67C2666.98 1520.67 2677.04 1510.15 2677.04 1497.18C2677.04 1484.21 2666.98 1473.7 2654.56 1473.7C2642.15 1473.7 2632.09 1484.21 2632.09 1497.18C2632.09 1510.15 2642.15 1520.67 2654.56 1520.67Z" fill="#93CC94"/>
<path fill-rule="evenodd" clip-rule="evenodd" d="M1716.11 1614.48C1716.11 1614.48 2062.85 1298.55 2204.57 1320.77C2204.57 1320.77 2058.37 1285.79 2029.31 954.429C2029.31 954.429 2178.99 1134.61 2310.44 1184.09C2310.44 1184.09 1991.65 946.898 2201.27 510.037C2201.27 510.037 1635.14 848.995 1803.37 1230.59C1803.37 1230.59 1528.46 815.074 2237 465.1C2237 465.1 2315.61 869.908 2377.04 941.608C2377.04 941.608 2825.66 971.421 2933.28 1437.66L2947.47 1513.72C2947.47 1513.72 3003.86 1701.62 3427.4 1932.15C3427.4 1932.15 3330.05 2292.52 2921.89 2155.91C2921.89 2155.91 3256.61 2217.34 3386.38 1954.37C3386.38 1954.37 3254.87 1978.27 3147.32 1916.78C3147.32 1916.78 3195.12 2014.12 3234.39 2034.6C3234.39 2034.6 3143.89 2150.74 2879.19 2063.67C2879.19 2063.67 2266.07 1597.43 1804.93 2009.02C1804.93 2009.02 1897.17 1578.63 2344.61 1646.97C2344.61 1646.97 1927.92 1476.18 1716.11 1614.48ZM2264.2 1327.43L2422.35 1438.16C2422.35 1438.16 2475.07 1631.47 2759.75 1640.25C2759.75 1640.25 2825.66 1654.32 2864.31 1693.84C2864.31 1693.84 2789.62 1597.18 2768.59 1557.66C2768.59 1557.66 2694.77 1401.25 2517.26 1379.28L2264.2 1327.43Z" fill="#562197"/>
<path fill-rule="evenodd" clip-rule="evenodd" d="M1873.95 1060.67C1873.95 1060.67 1812.4 1157.14 1913.48 1180.42C1913.48 1180.42 1884.41 1128.08 1873.95 1060.67Z" fill="#562197"/>
<path fill-rule="evenodd" clip-rule="evenodd" d="M2201.27 510.037C2201.27 510.037 1635.14 848.995 1803.37 1230.59C1803.37 1230.59 1528.46 815.074 2237 465.1C2237 465.1 2315.42 868.849 2376.85 941.359V942.542C2376.85 942.542 2313.18 942.231 2230.53 490.183C2230.53 490.183 2213.78 498.585 2201.27 510.1V510.038V510.037Z" fill="#46EF0F"/>
<path fill-rule="evenodd" clip-rule="evenodd" d="M2933.27 1437.66L2947.47 1513.72C2947.47 1513.72 3003.85 1701.62 3427.4 1932.15C3427.4 1932.15 3330.05 2292.52 2921.89 2155.91C2921.89 2155.91 3256.61 2217.34 3386.38 1954.37C3386.38 1954.37 3255.18 1978.21 3147.63 1916.97L3147.26 1916.59C3316.86 1954.87 3352.77 1927.36 3352.77 1927.36C2952.69 1701.24 2927.49 1528.16 2927.49 1528.16C2915.1 1472.45 2905.39 1394.22 2902.84 1388.36C2723.96 981.753 2377.1 941.67 2377.1 941.67C2404.18 943.599 2829.09 986.171 2933.28 1437.66H2933.27Z" fill="#46EF0F"/>
<path fill-rule="evenodd" clip-rule="evenodd" d="M3234.39 2034.6C3234.39 2034.6 3143.89 2150.74 2879.19 2063.67C2879.19 2063.67 2266.07 1597.43 1804.93 2009.02C1804.93 2009.02 1897.17 1578.63 2344.61 1646.97C2344.61 1646.97 2344.24 1646.78 2343.43 1646.47C2504.82 1661.91 2721.04 1711.45 2869.35 1825.91C3089.68 1995.82 3221.88 2031.43 3234.08 2034.47C3234.2 2034.54 3234.33 2034.6 3234.39 2034.6L3234.39 2034.6Z" fill="#8437D9"/>
<path fill-rule="evenodd" clip-rule="evenodd" d="M2806.74 542.65C2806.74 542.65 2873.15 892.126 2781.47 1115.07C2781.47 1115.07 2735.6 1001.23 2686.56 975.901C2686.56 975.901 2809.91 814.638 2776.68 628.043C2776.68 628.043 2499.65 886.712 2394.84 848.621C2394.84 848.621 2469.9 873.143 2806.74 542.65Z" fill="#562197"/>
<path fill-rule="evenodd" clip-rule="evenodd" d="M2806.74 542.65C2806.74 542.65 2872.4 888.081 2783.03 1111.15C2789.81 1072.87 2838.55 782.646 2800.89 570.907C2800.89 570.907 2605.4 778.352 2441.58 836.671C2495.11 812.522 2603.03 742.502 2806.74 542.65Z" fill="#B3B3B3"/>
<path fill-rule="evenodd" clip-rule="evenodd" d="M1492.85 1737.19C1466.5 1737.19 1445.2 1758.5 1445.2 1784.85C1445.2 1805.28 1458 1822.67 1476.03 1829.46V2456.85L1664.21 2660.81V3055.51C1646.18 3062.29 1633.38 3079.69 1633.38 3100.12C1633.38 3126.47 1654.67 3147.76 1681.02 3147.76C1707.37 3147.76 1728.68 3126.47 1728.68 3100.12C1728.68 3079.69 1715.87 3062.29 1697.84 3055.51V2647.65L1509.66 2443.69V1829.46C1527.7 1822.67 1540.51 1805.28 1540.51 1784.85C1540.51 1758.5 1519.2 1737.19 1492.85 1737.19Z" fill="#46EF0F"/>
<path fill-rule="evenodd" clip-rule="evenodd" d="M1360.28 1893.42C1354.36 1893.42 1348.69 1894.49 1343.46 1896.46C1325.43 1903.25 1312.62 1920.64 1312.62 1941.07C1312.62 1961.5 1325.43 1978.89 1343.46 1985.68V2644.46C1325.43 2651.25 1312.62 2668.63 1312.62 2689.06C1312.62 2715.41 1333.93 2736.72 1360.28 2736.72C1386.63 2736.72 1407.94 2715.41 1407.94 2689.06C1407.94 2668.63 1395.13 2651.25 1377.1 2644.46V2531.8L1513.29 2679.4V2867.47C1495.26 2874.25 1482.46 2891.65 1482.46 2912.07C1482.46 2938.42 1503.77 2959.73 1530.11 2959.73C1556.46 2959.73 1577.76 2938.42 1577.76 2912.07C1577.76 2891.65 1564.96 2874.25 1546.93 2867.47V2666.26L1377.1 2482.19V1985.68C1395.13 1978.89 1407.94 1961.5 1407.94 1941.07C1407.94 1920.65 1395.12 1903.31 1377.1 1896.52V1896.46H1376.95C1371.75 1894.52 1366.15 1893.42 1360.28 1893.42Z" fill="#46EF0F"/>
<path fill-rule="evenodd" clip-rule="evenodd" d="M1634.59 1949.76C1608.24 1949.76 1586.94 1971.06 1586.94 1997.41C1586.94 2017.83 1599.75 2035.23 1617.78 2042.02V2418.36L1844.98 2664.62V2998.38L1910.21 3069.08V3211.47H1943.85V3053.77H1941.85L1878.62 2985.23V2701.07L2124.68 2967.75V3175.89C2106.65 3182.68 2093.85 3200.07 2093.85 3220.5C2093.85 3246.85 2115.14 3268.16 2141.49 3268.16C2167.84 3268.16 2189.15 3246.85 2189.15 3220.5C2189.15 3200.07 2176.34 3182.68 2158.31 3175.89V2954.61L1651.41 2405.22V2042.02C1669.44 2035.23 1682.24 2017.83 1682.24 1997.41C1682.24 1971.06 1660.94 1949.76 1634.59 1949.76L1634.59 1949.76Z" fill="#46EF0F"/>
</svg>
