<?xml version="1.0" encoding="UTF-8" standalone="no"?><!DOCTYPE svg PUBLIC "-//W3C//DTD SVG 1.1//EN" "http://www.w3.org/Graphics/SVG/1.1/DTD/svg11.dtd"><svg width="100%" height="100%" viewBox="0 0 8334 4445" version="1.1" xmlns="http://www.w3.org/2000/svg" xmlns:xlink="http://www.w3.org/1999/xlink" xml:space="preserve" xmlns:serif="http://www.serif.com/" style="fill-rule:evenodd;clip-rule:evenodd;stroke-linejoin:round;stroke-miterlimit:2;"><g id="_1" serif:id="1"><g><g id="lobo"><g id="nuca"><path id="path1" d="M-0,2426.179l693.202,-769.019c0,0 -380.491,807.227 -693.202,769.019Z"/><path id="path2" d="M0.205,2425.987l535.44,-594c-281.913,482.207 -520.229,590.365 -530.307,594.775c-0.791,-0.094 -1.584,-0.122 -2.308,-0.213l-2.825,-0.562Z" style="fill:#7f7f7f;"/></g><g id="pescoço"><path id="path3" d="M1733.03,2693.21c0,0 -172.962,372.9 231.872,818.065c0,0 -480.472,-209.987 -456.934,-555.977c0,0 78.944,183.078 171.309,220.037c0,0 -147.771,-275.509 53.753,-482.125Z" style="fill:#b3b3b3;"/><path id="path4" d="M1370.18,3286.213c0,0 -705.468,-475.381 25.257,-764.312c0,0 -514.059,240.203 -25.257,764.312Z"/></g><g id="Cabeça"><g id="olho"><path id="path5" d="M1589.887,1978.023c0,0 95.076,-0.86 149.49,31.141c0,0 52.761,25.918 61.357,94.151c0,0 -137.391,35.439 -210.847,-125.292Z" style="fill:#7f7f7f;"/><path id="path26" d="M1589.883,1978.019c14.907,32.618 32.453,57.157 50.944,75.553c-4.542,-23.095 -0.473,-49.133 28.92,-68.028c-41.763,-7.863 -79.863,-7.525 -79.863,-7.525Z" style="fill:#333;fill-rule:nonzero;"/><ellipse id="path27" cx="1739.377" cy="2034.113" rx="23.877" ry="24.949" style="fill:#b3b3b3;"/></g><path id="path6" d="M742.466,2158.72c0,0 368.338,-335.61 518.886,-312.006c0,0 -155.309,-37.158 -186.185,-389.164c0,0 159.011,191.409 298.65,243.972c0,0 -338.651,-251.972 -115.969,-716.047c0,0 -601.4,360.073 -422.686,765.436c0,0 -292.039,-441.397 460.637,-813.172c0,0 83.506,430.025 148.763,506.191c0,0 476.571,31.67 590.887,526.952l15.075,80.795c0,0 59.902,199.607 509.828,444.504c0,0 -103.407,382.817 -537.002,237.69c0,0 355.577,65.257 493.431,-214.087c0,0 -139.705,25.389 -253.955,-39.935c0,0 50.778,103.407 92.498,125.159c0,0 -96.134,123.374 -377.329,30.877c0,0 -651.318,-495.282 -1141.179,-58.051c0,0 97.985,-457.199 573.3,-384.602c0,0 -442.653,-181.425 -667.649,-34.513Zm582.226,-304.931l168.003,117.622c0,0 56.001,205.359 358.42,214.682c0,0 70.018,14.942 111.076,56.927c0,0 -79.34,-102.68 -101.688,-144.664c0,0 -78.415,-166.152 -266.98,-189.491l-268.832,-55.075Z"/><path id="path7" d="M910.138,1570.411c0,0 -65.39,102.481 41.984,127.209c0,0 -30.877,-55.604 -41.984,-127.209Z"/><path id="path8" d="M1257.848,985.475c0,0 -601.4,360.073 -422.686,765.436c0,0 -292.039,-441.397 460.637,-813.172c0,0 83.307,428.901 148.565,505.927l0,1.256c0,0 -67.638,-0.331 -155.441,-480.538c0,0 -17.785,8.926 -31.075,21.157l-0,-0.066Z" style="fill:#b3b3b3;"/><path id="path9" d="M2035.449,1970.882l15.075,80.795c0,0 59.902,199.607 509.828,444.504c0,0 -103.407,382.817 -537.002,237.69c0,0 355.577,65.257 493.431,-214.087c0,0 -139.375,25.323 -253.625,-39.736l-0.397,-0.397c180.169,40.662 218.318,11.438 218.318,11.438c-425,-240.203 -451.777,-424.074 -451.777,-424.074c-13.157,-59.175 -23.472,-142.284 -26.182,-148.499c-190.02,-431.942 -558.49,-474.521 -558.49,-474.521c28.761,2.05 480.141,47.274 590.821,526.886Z" style="fill:#b3b3b3;"/><path id="path10" d="M2355.323,2605.01c0,0 -96.134,123.374 -377.329,30.877c0,0 -651.318,-495.282 -1141.179,-58.051c0,0 97.985,-457.199 573.3,-384.602c0,0 -0.397,-0.198 -1.256,-0.529c171.441,16.397 401.132,69.026 558.688,190.615c234.054,180.499 374.486,218.318 387.445,221.558c0.132,0.066 0.264,0.132 0.331,0.132Z" style="fill:#7f7f7f;"/></g><g id="Orelha"><path id="path11" d="M1901.033,1020.12c0,0 70.547,371.247 -26.843,608.078c0,0 -48.728,-120.928 -100.828,-147.838c0,0 131.044,-171.309 95.737,-369.528c0,0 -294.287,274.782 -405.628,234.318c0,0 79.737,26.05 437.562,-325.031Z"/><path id="path12" d="M1901.033,1020.12c0,0 69.753,366.949 -25.191,603.912c7.207,-40.662 58.976,-348.965 18.976,-573.895c0,0 -207.673,220.368 -381.693,282.319c56.861,-25.653 171.507,-100.035 387.908,-312.337Z" style="fill:#b3b3b3;"/></g><g id="circuito"><g id="g25"><path id="path24-2" d="M505.297,2289.075c-27.991,0 -50.624,22.633 -50.624,50.624c0,21.699 13.6,40.179 32.755,47.389l0,666.471l199.9,216.665l0,419.287c-19.155,7.211 -32.755,25.69 -32.755,47.389c0,27.991 22.623,50.614 50.614,50.614c27.991,0 50.624,-22.623 50.624,-50.614c0,-21.699 -13.6,-40.179 -32.755,-47.389l0,-433.263l-199.9,-216.665l0,-652.495c19.155,-7.211 32.765,-25.69 32.765,-47.389c0,-27.991 -22.633,-50.624 -50.624,-50.624Z" style="fill:#b3b3b3;"/></g><g id="g25-9"><path id="path24-2-3" d="M364.466,2455.03c-6.292,0 -12.315,1.144 -17.869,3.235c-19.155,7.211 -32.755,25.69 -32.755,47.389c0,21.699 13.6,40.179 32.755,47.389l0,699.816c-19.155,7.211 -32.755,25.68 -32.755,47.38c0,27.991 22.633,50.624 50.624,50.624c27.991,0 50.624,-22.633 50.624,-50.624c0,-21.699 -13.6,-40.169 -32.755,-47.38l0,-119.679l144.676,156.792l0,199.784c-19.155,7.211 -32.755,25.69 -32.755,47.389c0,27.991 22.633,50.624 50.624,50.624c27.991,0 50.614,-22.633 50.614,-50.624c0,-21.699 -13.6,-40.179 -32.755,-47.389l0,-213.74l-180.404,-195.533l0,-527.441c19.155,-7.211 32.755,-25.69 32.755,-47.389c0,-21.69 -13.613,-40.114 -32.755,-47.331l0,-0.058l-0.165,0c-5.516,-2.058 -11.465,-3.235 -17.704,-3.235l0,-0Z" style="fill:#b3b3b3;"/></g><g id="g25-4"><path id="path24-2-1" d="M655.861,2514.884c-27.991,0 -50.614,22.623 -50.614,50.614c0,21.699 13.6,40.179 32.755,47.389l0,399.791l241.362,261.595l0,354.552l69.287,75.108l0,151.262l35.738,0l0,-167.523l-2.121,0l-67.176,-72.813l0,-301.865l261.391,283.299l0,221.101c-19.155,7.211 -32.755,25.69 -32.755,47.389c0,27.991 22.623,50.624 50.614,50.624c27.991,0 50.624,-22.633 50.624,-50.624c0,-21.699 -13.6,-40.179 -32.755,-47.389l0,-235.067l-538.482,-583.615l0,-385.825c19.155,-7.211 32.755,-25.69 32.755,-47.389c0,-27.991 -22.633,-50.614 -50.624,-50.614Z" style="fill:#b3b3b3;"/></g></g></g><path d="M3057.872,2546c-16.601,0 -31.819,-4.025 -45.654,-12.074c-13.834,-8.049 -24.776,-18.991 -32.825,-32.825c-8.049,-13.834 -12.074,-29.052 -12.074,-45.654l0,-452.765l61.123,0l0,452.765c0,8.049 2.893,14.966 8.678,20.752c5.785,5.785 12.703,8.678 20.752,8.678l362.212,0c8.049,0 14.966,-2.893 20.752,-8.678c5.785,-5.785 8.678,-12.703 8.678,-20.752l0,-452.765l61.123,0l0,452.765c0,16.601 -4.025,31.819 -12.074,45.654c-8.049,13.834 -18.991,24.776 -32.825,32.825c-13.834,8.049 -29.052,12.074 -45.654,12.074l-362.212,0Zm534.262,0l0,-437.672l354.666,0c16.601,0 31.819,4.15 45.654,12.451c13.834,8.301 24.902,19.368 33.203,33.203c8.301,13.834 12.451,29.052 12.451,45.654l0,346.365l-61.878,0l0,-346.365c0,-8.049 -2.893,-14.966 -8.678,-20.752c-5.785,-5.785 -12.703,-8.678 -20.752,-8.678l-262.603,0c-8.049,0 -15.092,2.893 -21.129,8.678c-6.037,5.785 -9.055,12.703 -9.055,20.752l0,346.365l-61.878,0Zm528.98,0l0,-543.317l429.372,0c16.601,0 31.819,4.025 45.654,12.074c13.834,8.049 24.776,18.991 32.825,32.825c8.049,13.834 12.074,29.052 12.074,45.654l0,115.455c0,7.043 -0.88,13.96 -2.641,20.752c-1.761,6.791 -4.15,13.206 -7.169,19.242c11.068,16.601 19.368,30.939 24.902,43.013c5.534,12.074 8.301,24.399 8.301,36.976l0,126.774c0,16.601 -4.025,31.819 -12.074,45.654c-8.049,13.834 -18.991,24.776 -32.825,32.825c-13.834,8.049 -29.052,12.074 -45.654,12.074l-452.765,0Zm90.553,-307.88l338.819,0c8.049,0 14.841,-2.893 20.374,-8.678c5.534,-5.785 8.301,-12.703 8.301,-20.752l0,-115.455c0,-8.049 -2.767,-14.966 -8.301,-20.752c-5.534,-5.785 -12.325,-8.678 -20.374,-8.678l-338.819,0c-8.049,0 -14.966,2.893 -20.752,8.678c-5.785,5.785 -8.678,12.703 -8.678,20.752l0,115.455c0,8.049 2.893,14.966 8.678,20.752c5.785,5.785 12.703,8.678 20.752,8.678Zm0,246.757l362.212,0c8.049,0 14.966,-2.893 20.752,-8.678c5.785,-5.785 8.678,-12.703 8.678,-20.752l0,-126.774c0,-8.049 -2.893,-14.966 -8.678,-20.752c-5.785,-5.785 -12.703,-8.678 -20.752,-8.678l-362.212,0c-8.049,0 -14.966,2.893 -20.752,8.678c-5.785,5.785 -8.678,12.703 -8.678,20.752l0,126.774c0,8.049 2.893,14.966 8.678,20.752c5.785,5.785 12.703,8.678 20.752,8.678Zm531.998,61.123l0,-346.365c0,-16.601 4.15,-31.819 12.451,-45.654c8.301,-13.834 19.368,-24.902 33.203,-33.203c13.834,-8.301 29.052,-12.451 45.654,-12.451l246.002,0l0,61.878l-246.002,0c-8.049,0 -14.966,2.893 -20.752,8.678c-5.785,5.785 -8.678,12.703 -8.678,20.752l0,346.365l-61.878,0Zm476.912,0c-16.601,0 -31.819,-4.15 -45.654,-12.451c-13.834,-8.301 -24.902,-19.368 -33.203,-33.203c-8.301,-13.834 -12.451,-29.052 -12.451,-45.654l0,-255.057c0,-16.601 4.15,-31.819 12.451,-45.654c8.301,-13.834 19.368,-24.902 33.203,-33.203c13.834,-8.301 29.052,-12.451 45.654,-12.451l262.603,0c17.104,0 32.574,4.15 46.408,12.451c13.834,8.301 24.902,19.368 33.203,33.203c8.301,13.834 12.451,29.052 12.451,45.654l0,158.468l-384.095,0l0,96.59c0,8.049 2.893,14.966 8.678,20.752c5.785,5.785 12.703,8.678 20.752,8.678l354.666,0l0,61.878l-354.666,0Zm-29.43,-249.775l321.463,0l0,-96.59c0,-8.049 -2.893,-14.966 -8.678,-20.752c-5.785,-5.785 -12.703,-8.678 -20.752,-8.678l-262.603,0c-8.049,0 -14.966,2.893 -20.752,8.678c-5.785,5.785 -8.678,12.703 -8.678,20.752l0,96.59Zm552.373,249.775c-16.601,0 -31.819,-4.15 -45.654,-12.451c-13.834,-8.301 -24.902,-19.368 -33.203,-33.203c-8.301,-13.834 -12.451,-29.052 -12.451,-45.654l0,-158.468l383.341,0l0,-96.59c0,-8.049 -2.893,-14.966 -8.678,-20.752c-5.785,-5.785 -12.703,-8.678 -20.752,-8.678l-353.911,0l0,-61.878l353.911,0c17.104,0 32.574,4.15 46.408,12.451c13.834,8.301 24.902,19.368 33.203,33.203c8.301,13.834 12.451,29.052 12.451,45.654l0,346.365l-354.666,0Zm0,-61.878l292.033,0l0,-126.019l-321.463,0l0,96.59c0,8.049 2.893,14.966 8.678,20.752c5.785,5.785 12.703,8.678 20.752,8.678Zm433.899,61.878l0,-581.048l61.878,0l0,331.273l120.737,0l172.051,-187.897l81.498,0l0,0.755l-198.462,218.082l197.707,218.082l0,0.755l-80.743,0l-172.051,-187.897l-120.737,0l0,187.897l-61.878,0Zm577.275,0c-16.601,0 -31.819,-4.15 -45.654,-12.451c-13.834,-8.301 -24.902,-19.368 -33.203,-33.203c-8.301,-13.834 -12.451,-29.052 -12.451,-45.654l0,-158.468l383.341,0l0,-96.59c0,-8.049 -2.893,-14.966 -8.678,-20.752c-5.785,-5.785 -12.703,-8.678 -20.752,-8.678l-353.911,0l0,-61.878l353.911,0c17.104,0 32.574,4.15 46.408,12.451c13.834,8.301 24.902,19.368 33.203,33.203c8.301,13.834 12.451,29.052 12.451,45.654l0,346.365l-354.666,0Zm0,-61.878l292.033,0l0,-126.019l-321.463,0l0,96.59c0,8.049 2.893,14.966 8.678,20.752c5.785,5.785 12.703,8.678 20.752,8.678Zm415.034,61.878l0,-581.048l61.878,0l0,143.375l292.788,0c16.601,0 31.819,4.15 45.654,12.451c13.834,8.301 24.902,19.368 33.203,33.203c8.301,13.834 12.451,29.052 12.451,45.654l0,255.057c0,16.601 -4.15,31.819 -12.451,45.654c-8.301,13.834 -19.368,24.902 -33.203,33.203c-13.834,8.301 -29.052,12.451 -45.654,12.451l-354.666,0Zm92.062,-61.878l262.603,0c8.049,0 14.966,-2.893 20.752,-8.678c5.785,-5.785 8.678,-12.703 8.678,-20.752l0,-255.057c0,-8.049 -2.893,-14.966 -8.678,-20.752c-5.785,-5.785 -12.703,-8.678 -20.752,-8.678l-262.603,0c-8.049,0 -15.092,2.893 -21.129,8.678c-6.037,5.785 -9.055,12.703 -9.055,20.752l0,255.057c0,8.049 3.018,14.966 9.055,20.752c6.037,5.785 13.08,8.678 21.129,8.678Zm501.059,61.878c-16.601,0 -31.819,-4.15 -45.654,-12.451c-13.834,-8.301 -24.902,-19.368 -33.203,-33.203c-8.301,-13.834 -12.451,-29.052 -12.451,-45.654l0,-489.74l61.878,0l0,489.74c0,8.049 2.893,14.966 8.678,20.752c5.785,5.785 12.703,8.678 20.752,8.678l73.952,0l0,61.878l-73.952,0Zm215.818,0c-16.601,0 -31.819,-4.15 -45.654,-12.451c-13.834,-8.301 -24.902,-19.368 -33.203,-33.203c-8.301,-13.834 -12.451,-29.052 -12.451,-45.654l0,-255.057c0,-16.601 4.15,-31.819 12.451,-45.654c8.301,-13.834 19.368,-24.902 33.203,-33.203c13.834,-8.301 29.052,-12.451 45.654,-12.451l262.603,0c17.104,0 32.574,4.15 46.408,12.451c13.834,8.301 24.902,19.368 33.203,33.203c8.301,13.834 12.451,29.052 12.451,45.654l0,158.468l-384.095,0l0,96.59c0,8.049 2.893,14.966 8.678,20.752c5.785,5.785 12.703,8.678 20.752,8.678l354.666,0l0,61.878l-354.666,0Zm-29.43,-249.775l321.463,0l0,-96.59c0,-8.049 -2.893,-14.966 -8.678,-20.752c-5.785,-5.785 -12.703,-8.678 -20.752,-8.678l-262.603,0c-8.049,0 -14.966,2.893 -20.752,8.678c-5.785,5.785 -8.678,12.703 -8.678,20.752l0,96.59Z"/></g></g></svg>